<svg width="1647" height="1207" viewBox="0 0 1647 1207" fill="none" xmlns="http://www.w3.org/2000/svg">
<rect width="1647" height="1207" fill="#2F3740"/>
<path d="M1030.16 374.588C1057.57 372.539 1070.42 373.139 1103.16 367.391C1141.41 359.49 1156.62 353.319 1183.35 341.687C1220.93 325.338 1241.96 315.983 1273.83 288.223L1336.55 224.478V680.272C1336.59 680.861 1336.59 681.439 1336.55 682.004V680.272C1335.78 669.841 1321.93 656.026 1318.04 651.16C1313.93 646.019 1292.34 619.287 1286.17 613.118C1280 606.95 1265.78 593.29 1247.1 578.161C1238.87 571.5 1232.7 563.767 1205.97 552.458C1192.46 548.212 1186.39 546.993 1176.16 545.261C1170.63 527.088 1167.97 517.127 1156.62 495.909C1144.37 476.846 1136.21 465.786 1119.61 445.53C1112.66 436.784 1092.74 418.159 1065.12 396.179C1053.1 389.025 1044.4 383.482 1030.16 374.588Z" fill="url(#paint0_linear_30_2)"/>
<rect x="1334.49" y="187.464" width="94.5898" height="534.638" rx="47.2949" fill="url(#paint1_linear_30_2)"/>
<path fill-rule="evenodd" clip-rule="evenodd" d="M352.077 456.84C338.338 474.366 316.971 485.628 292.975 485.628C251.523 485.628 217.92 452.024 217.92 410.573C217.92 369.121 251.523 335.518 292.975 335.518C322.216 335.518 347.552 352.24 359.941 376.644H464.676H466.732H553.096L466.732 456.84H352.077Z" fill="url(#paint2_linear_30_2)"/>
<circle cx="657.968" cy="249.153" r="43.1823" fill="url(#paint3_linear_30_2)"/>
<circle cx="789.968" cy="249.153" r="43.1823" fill="url(#paint4_linear_30_2)"/>
<circle cx="920.968" cy="249.153" r="43.1823" fill="url(#paint5_linear_30_2)"/>
<path d="M626.92 335.464H712.92V960.464C712.92 960.464 685.765 963.854 668.92 960.464C651.425 956.944 626.92 942.464 626.92 942.464V335.464Z" fill="url(#paint6_linear_30_2)"/>
<path d="M943.92 335.464H857.92V960.464C857.92 960.464 885.074 963.854 901.92 960.464C919.414 956.944 943.92 942.464 943.92 942.464V335.464Z" fill="url(#paint7_linear_30_2)"/>
<path d="M745.92 335.464H832.92V971.23C816.42 978.561 809.92 987.464 790.42 987.464C770.92 987.464 745.92 971.23 745.92 971.23V335.464Z" fill="url(#paint8_linear_30_2)"/>
<path d="M988.004 932.873C1029.13 920.535 1105.36 842.906 1128.76 795.516C1152.17 748.125 1162.62 695.004 1159.01 641.899C1155.39 588.793 1137.83 537.723 1108.23 494.212C1078.63 450.701 1038.12 416.406 991.079 395.034L971.554 511.332C995.201 526.754 1001.9 531.691 1020.18 558.561C1038.46 585.432 1049.3 616.97 1051.53 649.766C1053.77 682.562 1047.31 715.367 1032.86 744.633C1018.4 773.899 996.505 798.513 969.532 815.812L988.004 932.873Z" fill="url(#paint9_linear_30_2)"/>
<path d="M591.138 932.989C550.012 920.651 473.784 843.023 450.38 795.632C426.977 748.241 416.519 695.121 420.137 642.015C423.756 588.909 441.313 537.839 470.911 494.328C500.508 450.817 541.02 416.522 588.063 395.151L607.589 511.448C583.941 526.87 577.243 531.807 558.965 558.678C540.687 585.548 529.844 617.086 527.61 649.882C525.375 682.678 531.833 715.483 546.286 744.749C560.739 774.015 582.637 798.629 609.611 815.928L591.138 932.989Z" fill="url(#paint10_linear_30_2)"/>
<g filter="url(#filter0_f_30_2)">
<ellipse cx="1326.86" cy="500.734" rx="52.6734" ry="56.9155" transform="rotate(7.49586 1326.86 500.734)" fill="#FF6B6B"/>
</g>
<g filter="url(#filter1_f_30_2)">
<ellipse cx="295.92" cy="403.964" rx="38" ry="38.5" fill="#FF6B6B"/>
</g>
<g filter="url(#filter2_f_30_2)">
<ellipse cx="465.92" cy="681.464" rx="38" ry="41" fill="#FF6B6B"/>
</g>
<path d="M532.649 419.724L603.92 368.464L622.92 617.964L469.92 474.464L532.649 419.724Z" fill="url(#paint11_linear_30_2)"/>
<path d="M1051.19 419.724L979.919 368.464L960.919 617.964L1113.92 474.464L1051.19 419.724Z" fill="url(#paint12_linear_30_2)"/>
<path d="M1025.92 733.464L958.745 770.612L984.21 1019.54L1109.39 851.219L1025.92 733.464Z" fill="url(#paint13_linear_30_2)"/>
<path d="M524.821 665.634L622.782 713.507L596.46 1014.74L409.831 805.197L524.821 665.634Z" fill="url(#paint14_linear_30_2)"/>
<defs>
<filter id="filter0_f_30_2" x="1124.1" y="293.882" width="405.51" height="413.703" filterUnits="userSpaceOnUse" color-interpolation-filters="sRGB">
<feFlood flood-opacity="0" result="BackgroundImageFix"/>
<feBlend mode="normal" in="SourceGraphic" in2="BackgroundImageFix" result="shape"/>
<feGaussianBlur stdDeviation="75" result="effect1_foregroundBlur_30_2"/>
</filter>
<filter id="filter1_f_30_2" x="157.92" y="265.464" width="276" height="277" filterUnits="userSpaceOnUse" color-interpolation-filters="sRGB">
<feFlood flood-opacity="0" result="BackgroundImageFix"/>
<feBlend mode="normal" in="SourceGraphic" in2="BackgroundImageFix" result="shape"/>
<feGaussianBlur stdDeviation="50" result="effect1_foregroundBlur_30_2"/>
</filter>
<filter id="filter2_f_30_2" x="277.92" y="490.464" width="376" height="382" filterUnits="userSpaceOnUse" color-interpolation-filters="sRGB">
<feFlood flood-opacity="0" result="BackgroundImageFix"/>
<feBlend mode="normal" in="SourceGraphic" in2="BackgroundImageFix" result="shape"/>
<feGaussianBlur stdDeviation="75" result="effect1_foregroundBlur_30_2"/>
</filter>
<linearGradient id="paint0_linear_30_2" x1="1261.92" y1="173.464" x2="1361.92" y2="594.464" gradientUnits="userSpaceOnUse">
<stop stop-color="#C7F464"/>
<stop offset="0.485" stop-color="#4ECDC4"/>
<stop offset="1" stop-color="#3300FF"/>
</linearGradient>
<linearGradient id="paint1_linear_30_2" x1="1381.79" y1="187.464" x2="1381.79" y2="722.102" gradientUnits="userSpaceOnUse">
<stop stop-color="#C7F464"/>
<stop offset="0.51" stop-color="#4ECDC4"/>
<stop offset="1" stop-color="#3300FF"/>
</linearGradient>
<linearGradient id="paint2_linear_30_2" x1="552.92" y1="324.464" x2="238.92" y2="473.464" gradientUnits="userSpaceOnUse">
<stop stop-color="#C7F464"/>
<stop offset="0.48" stop-color="#4ECDC4"/>
<stop offset="1" stop-color="#3300FF"/>
</linearGradient>
<linearGradient id="paint3_linear_30_2" x1="657.968" y1="205.971" x2="657.968" y2="292.335" gradientUnits="userSpaceOnUse">
<stop stop-color="#C7F464"/>
<stop offset="0.31" stop-color="#A1E882"/>
<stop offset="1" stop-color="#4ECDC4"/>
</linearGradient>
<linearGradient id="paint4_linear_30_2" x1="789.968" y1="205.971" x2="789.968" y2="292.335" gradientUnits="userSpaceOnUse">
<stop stop-color="#C7F464"/>
<stop offset="1" stop-color="#4ECDC4"/>
</linearGradient>
<linearGradient id="paint5_linear_30_2" x1="920.968" y1="205.971" x2="920.968" y2="292.335" gradientUnits="userSpaceOnUse">
<stop stop-color="#C7F464"/>
<stop offset="1" stop-color="#4ECDC4"/>
</linearGradient>
<linearGradient id="paint6_linear_30_2" x1="669.92" y1="335.464" x2="669.92" y2="942.464" gradientUnits="userSpaceOnUse">
<stop stop-color="#C7F464"/>
<stop offset="0.465" stop-color="#4ECDC4"/>
<stop offset="1" stop-color="#3300FF"/>
</linearGradient>
<linearGradient id="paint7_linear_30_2" x1="900.92" y1="335.464" x2="900.92" y2="942.464" gradientUnits="userSpaceOnUse">
<stop stop-color="#C7F464"/>
<stop offset="0.465" stop-color="#4ECDC4"/>
<stop offset="1" stop-color="#3300FF"/>
</linearGradient>
<linearGradient id="paint8_linear_30_2" x1="789.42" y1="335.464" x2="789.42" y2="971.23" gradientUnits="userSpaceOnUse">
<stop stop-color="#C7F464"/>
<stop offset="0.465" stop-color="#4ECDC4"/>
<stop offset="1" stop-color="#3300FF"/>
</linearGradient>
<linearGradient id="paint9_linear_30_2" x1="1064.62" y1="395.034" x2="1064.62" y2="932.873" gradientUnits="userSpaceOnUse">
<stop offset="0.165" stop-color="#C7F464"/>
<stop offset="0.63" stop-color="#4ECDC4"/>
<stop offset="0.89" stop-color="#3300FF"/>
</linearGradient>
<linearGradient id="paint10_linear_30_2" x1="599.92" y1="327.464" x2="585.92" y2="949.464" gradientUnits="userSpaceOnUse">
<stop offset="0.215" stop-color="#C7F464"/>
<stop offset="0.540266" stop-color="#4ECDC4"/>
<stop offset="1" stop-color="#3300FF"/>
</linearGradient>
<linearGradient id="paint11_linear_30_2" x1="608.42" y1="440.964" x2="538.108" y2="453.734" gradientUnits="userSpaceOnUse">
<stop offset="0.152881" stop-color="#2F3740"/>
<stop offset="1" stop-color="#2F3740" stop-opacity="0"/>
</linearGradient>
<linearGradient id="paint12_linear_30_2" x1="975.419" y1="440.964" x2="1045.73" y2="453.734" gradientUnits="userSpaceOnUse">
<stop offset="0.152881" stop-color="#2F3740"/>
<stop offset="1" stop-color="#2F3740" stop-opacity="0"/>
</linearGradient>
<linearGradient id="paint13_linear_30_2" x1="967.15" y1="842.764" x2="1038.61" y2="842.886" gradientUnits="userSpaceOnUse">
<stop offset="0.152881" stop-color="#2F3740"/>
<stop offset="1" stop-color="#2F3740" stop-opacity="0"/>
</linearGradient>
<linearGradient id="paint14_linear_30_2" x1="613.683" y1="800.779" x2="511.331" y2="804.451" gradientUnits="userSpaceOnUse">
<stop offset="0.152881" stop-color="#2F3740"/>
<stop offset="1" stop-color="#2F3740" stop-opacity="0"/>
</linearGradient>
</defs>
</svg>
